Subj06walk_36
version=1
nRows=63
nColumns=19
inDegrees=no
endheader
time	l_ground_force_vx	l_ground_force_vy	l_ground_force_vz	l_ground_force_px	l_ground_force_py	l_ground_force_pz	ground_force_vx	ground_force_vy	ground_force_vz	ground_force_px	ground_force_py	ground_force_pz	l_ground_torque_x	l_ground_torque_y	l_ground_torque_z	ground_torque_x	ground_torque_y	ground_torque_z	
30.48	41.6788411768611	174.756328051945	-6.14120351089242	-0.287649165076658	0	-0.0427352472308075	-31.9359930381226	405.877262582157	-5.95434620471502	0.0937052931021354	0	0.049943885961757	0	-5.84439607910489	0	0	-1.50199961505216	0
30.49	32.4922042375	133.456021396258	-3.89356010315878	-0.286816119959457	0	-0.0420207874926866	-33.9648329850779	421.151316023816	-6.89581012385371	0.0909431043068036	0	0.0496435865626958	0	-4.68438180008062	0	0	-1.73154326634572	0
30.5	23.7001093363715	98.0019068098982	-0.905508255631296	-0.283000618711552	0	-0.0411990943337614	-36.9330504828245	441.159914997888	-7.95837887355002	0.0876023435353875	0	0.0492907913441189	0	-3.23206816935838	0	0	-2.20129609236283	0
30.51	15.8832784173612	68.6987273299963	2.05364238012175	-0.274880079395636	0	-0.0401633235770134	-40.6179137079073	466.369417606333	-9.22164109339561	0.0837826620022826	0	0.0489041999175154	0	-1.77618674490652	0	0	-2.82249382375361	0
30.52	9.43370861722403	45.4246189655063	4.20143575259819	-0.262622246797271	0	-0.0387569528995283	-44.3861975130262	494.85652499736	-10.6860890082737	0.0796303104829852	0	0.0486109641876265	0	-0.599790110448308	0	0	-3.30676069887871	0
30.53	4.41307159843739	27.7493911634061	5.05068446418948	-0.247098756578932	0	-0.0362754341804876	-47.6196960696554	523.542575557445	-12.4028447615498	0.0754380230674803	0	0.048399159352249	0	0.309542563947516	0	0	-3.44611084033339	0
30.54	0	0	0	0	0	0	-50.053139207911	549.780284460164	-14.3283346833302	0.0711594266692006	0	0.0482147870203232	0	0	0	0	-3.44349008485669	0
30.55	0	0	0	0	0	0	-51.7017293972249	572.089530970819	-16.2252271495852	0.0666095487885684	0	0.0479800058753684	0	0	0	0	-3.56135044643999	0
30.56	0	0	0	0	0	0	-52.7317944056302	590.094685728833	-17.8247784735404	0.061654805359835	0	0.0476469761660247	0	0	0	0	-3.81637125440746	0
30.57	0	0	0	0	0	0	-53.3966058294648	604.111803791763	-18.9141534731788	0.0562866809815664	0	0.0472522030098907	0	0	0	0	-4.1748837170597	0
30.58	0	0	0	0	0	0	-53.8702119914099	614.303677021757	-19.536742843196	0.0508223860651753	0	0.04685358533768	0	0	0	0	-4.49156040880461	0
30.59	0	0	0	0	0	0	-54.2365046202859	620.413084888227	-19.7660402294694	0.0456718298697521	0	0.0463917780312164	0	0	0	0	-4.63045197605574	0
30.6	0	0	0	0	0	0	-54.2259165187135	622.200609167305	-19.44351401329	0.0407939711191382	0	0.0458185781136182	0	0	0	0	-4.56163526474684	0
30.61	0	0	0	0	0	0	-53.5339673469165	619.67135532259	-18.3950327978835	0.0359674743367339	0	0.0451209675530331	0	0	0	0	-4.32280219781299	0
30.62	0	0	0	0	0	0	-52.0522394282531	613.196999811089	-16.8213836706909	0.0308889156579438	0	0.0443515768709778	0	0	0	0	-4.02097501294026	0
30.63	0	0	0	0	0	0	-49.9434493322289	603.104074898298	-15.2314106846405	0.0254074527598579	0	0.0434773707609594	0	0	0	0	-3.67638394251579	0
30.64	0	0	0	0	0	0	-47.2909564453846	590.088910997633	-13.8550222241741	0.0195551786287257	0	0.0426273023704643	0	0	0	0	-3.39704860456287	0
30.65	0	0	0	0	0	0	-44.3178834494449	575.267581103901	-12.7854828955416	0.0135156651591813	0	0.0418916238445784	0	0	0	0	-3.19392762952498	0
30.66	0	0	0	0	0	0	-41.3839303816368	559.824613348126	-12.2049521053143	0.00768065932456914	0	0.0412963250041227	0	0	0	0	-2.92475451726084	0
30.67	0	0	0	0	0	0	-38.6095492028714	544.614518892122	-12.1156478850715	0.00230589263305026	0	0.0407743428843219	0	0	0	0	-2.53577257806696	0
30.68	0	0	0	0	0	0	-35.8224497989845	530.414692782845	-12.2723100799591	-0.00291522066812622	0	0.0402944950999313	0	0	0	0	-2.14587963709815	0
30.69	0	0	0	0	0	0	-32.8096554324467	517.678856582964	-12.5266819780556	-0.00844080789741078	0	0.0398012370135539	0	0	0	0	-1.79839277554528	0
30.7	0	0	0	0	0	0	-29.4190979363055	506.819674273424	-12.7076246682579	-0.0147195872365341	0	0.039421556310183	0	0	0	0	-1.42581847646137	0
30.71	0	0	0	0	0	0	-25.5871145010986	497.891948727522	-12.6389050587229	-0.0219683590761316	0	0.0391962392679798	0	0	0	0	-0.948223825966179	0
30.72	0	0	0	0	0	0	-21.5796577701108	490.730805455774	-12.3183830049791	-0.0300622307990095	0	0.0391740117407846	0	0	0	0	-0.418843150945393	0
30.73	0	0	0	0	0	0	-17.899333407594	485.020519986636	-11.917922478399	-0.0384942216785637	0	0.0392410575201082	0	0	0	0	0.00119366660826531	0
30.74	0	0	0	0	0	0	-14.8708625869869	480.691303973246	-11.6731841213271	-0.0465761889355018	0	0.0393346607611211	0	0	0	0	0.315858497004306	0
30.75	0	0	0	0	0	0	-12.4299991265757	477.687806230175	-11.4409367489368	-0.0541279289982975	0	0.0394503833594588	0	0	0	0	0.575250973302545	0
30.76	0	0	0	0	0	0	-10.2411527259285	475.904322115261	-10.9016177620276	-0.0615465647641021	0	0.0396285932685441	0	0	0	0	0.734601453778689	0
30.77	0	0	0	0	0	0	-8.05710220117371	475.007157943224	-10.1255152058606	-0.0692430782550726	0	0.0396947653859226	0	0	0	0	0.784852999326358	0
30.78	0	0	0	0	0	0	-5.60788514159866	474.891965466408	-9.32869550518031	-0.0776609768047807	0	0.0396555591597601	0	0	0	0	0.83917208320189	0
30.79	0	0	0	0	0	0	-2.99165084528081	475.569079531007	-8.7542231956853	-0.0870663869808364	0	0.0394677599939887	0	0	0	0	0.850724732480365	0
30.8	0	0	0	0	0	0	-0.209927063820811	477.295830737256	-8.43572834803697	-0.0973920736692537	0	0.0391650537825721	0	0	0	0	0.747995909307283	0
30.81	0	0	0	0	0	0	2.84533103818496	480.406408066148	-8.39057385329665	-0.108198849213946	0	0.0387956995002897	0	0	0	0	0.681258350809973	0
30.82	0	0	0	0	0	0	6.2548683575012	485.032538042238	-8.605228808709	-0.118831546657015	0	0.0385002427049941	0	0	0	0	0.726114778483434	0
30.83	0	0	0	0	0	0	9.7500453619269	490.875309783738	-9.07344509946162	-0.128732631947238	0	0.0382538506868014	0	0	0	0	0.774643353040705	0
30.84	0	0	0	0	0	0	13.2583174014089	497.534680400126	-9.74427850096313	-0.13821745171546	0	0.0380530061592257	0	0	0	0	0.747237439926861	0
30.85	0	0	0	0	0	0	17.0905810797896	504.539302800717	-10.5591286725277	-0.148101207491591	0	0.0378236135694866	0	0	0	0	0.744381445193355	0
30.86	0	0	0	0	0	0	21.6617147627447	511.823116709137	-11.4387265225164	-0.158857307649116	0	0.037735489300976	0	0	0	0	0.919606934493676	0
30.87	0	0	0	0	0	0	27.0672396122895	519.250774357664	-12.2745693172069	-0.170180408472111	0	0.0378288000459059	0	0	0	0	1.200978951325	0
30.88	0	0	0	0	0	0	33.0826939554933	526.758114305547	-13.0319589858359	-0.181343720896663	0	0.0380307203517583	0	0	0	0	1.54752262263927	0
30.89	0	0	0	0	0	0	39.4323037439467	534.191407850396	-13.7491108888133	-0.192056451059891	0	0.0381602043725326	0	0	0	0	1.92503465448233	0
30.9	0	0	0	0	0	0	45.9920976762461	541.46047166252	-14.6359025703704	-0.202431812127512	0	0.038223089160461	0	0	0	0	2.35320095294653	0
30.91	0	0	0	0	0	0	52.5923372952885	548.376059870918	-15.7642472877451	-0.212219821390982	0	0.0382427124826614	0	0	0	0	2.95589312434991	0
30.92	0	0	0	0	0	0	58.9721582906384	554.433328838856	-16.9185208618363	-0.221240914368701	0	0.0383143317032273	0	0	0	0	3.59183362823191	0
30.93	7.30582101627806	30.8695559214783	0.789886959478519	0.184676486190427	0	-0.0555048143126086	65.123578652364	558.337500316668	-17.7619381631125	-0.229685205292181	0	0.0385442741566387	0	-0.24066485126948	0	0	3.83989485824488	0
30.94	13.4871570268808	57.8275219235202	-0.0900564291376766	0.168727344793033	0	-0.065923979634335	71.0245785546048	558.335242659658	-18.1253717899531	-0.237914594711737	0	0.0389445067163451	0	-0.787226626470941	0	0	3.60202226011128	0
30.95	17.460156932457	89.0345832060383	-1.22693757818683	0.155832748237567	0	-0.0688492961212435	76.6305844067102	552.905583246366	-17.7922527442364	-0.24627498492175	0	0.0394550345853972	0	-1.12149575831916	0	0	3.2824562234863	0
30.96	16.4339495247067	121.551359632925	-2.74069204255229	0.145363399504063	0	-0.0695595556861767	81.6373105823929	540.982492236824	-16.6585891454089	-0.254635627011222	0	0.0399952281603624	0	-0.753885906291545	0	0	3.23611267743758	0
30.97	11.6270845872555	156.099444278744	-4.13351946964913	0.136890185315009	0	-0.0701054131821411	85.549610180481	522.103981592271	-14.7127743779923	-0.262556963826628	0	0.040510753989749	0	0.113559868668208	0	0	3.52667168510965	0
30.98	3.74175743799977	194.242565561719	-4.69026265654027	0.129947097812574	0	-0.0707393735281361	87.8525727324606	496.473910982436	-12.1272164533817	-0.269847923085139	0	0.0410094954842158	0	1.19616193372159	0	0	4.06408813122637	0
30.99	-6.08757216638983	237.884729802646	-4.19326459524591	0.124901519682172	0	-0.0714519142329817	88.1578123684754	464.672293194741	-9.3562697070891	-0.276439743748238	0	0.0414778081494547	0	2.27567556033068	0	0	4.66143875366625	0
31	-17.3365432533751	287.52795862528	-2.57061085847975	0.122047597190797	0	-0.0721672202697165	86.1589087733249	427.443435088444	-6.5849695673696	-0.282384028389399	0	0.0419276764816543	0	3.25801406254986	0	0	5.12740412453106	0
31.01	-29.658384419634	340.133228786255	0.101896835247244	0.121152451636112	0	-0.0727250255688933	81.4783136149173	385.519253332092	-3.84560311005738	-0.288048507834561	0	0.042336718653206	0	4.14240699167331	0	0	5.2720312881875	0
31.02	-41.8782377051737	389.053250933866	3.51817409952358	0.12126536444247	0	-0.0730230587782388	74.1770130072997	339.604824141831	-1.18559567280593	-0.29373237845954	0	0.0426063574610063	0	4.89835590375132	0	0	5.06195813679132	0
31.03	-52.1177441645462	427.424845752551	7.49498542635532	0.121191438262448	0	-0.0731544507074377	64.9158026300587	290.69252801583	0.992710845124529	-0.299458835508865	0	0.0425060275196636	0	5.42313710380748	0	0	4.66812192064838	0
31.04	-59.2350395397918	453.001563908664	11.9577234587998	0.120088345659067	0	-0.073143513082147	54.7874164119742	240.557247267327	2.35513754581274	-0.305253949597084	0	0.0419324942356955	0	5.64793682490067	0	0	4.11503902337158	0
31.05	-63.7496560227346	469.892078760618	16.6590306746926	0.117487769955657	0	-0.0729742155431773	44.9301756396507	191.615564384578	2.7003550000107	-0.311073825639024	0	0.0410333188646634	0	5.60431201498526	0	0	3.37768231000754	0
31.06	-66.7508161410678	484.415772083525	20.960701172964	0.113626240794805	0	-0.072531119186678	36.1125226773553	146.101202219468	2.09778342513237	-0.317599814786537	0	0.0399199533244277	0	5.37390277593544	0	0	2.45071414136533	0
31.07	-68.5307821086366	500.36131925256	24.1948191973747	0.109010600816437	0	-0.0717761754850784	28.4173472090423	105.824501677841	0.920986100591367	-0.327259979710863	0	0.0382775448884863	0	5.124103037682	0	0	1.45027702852869	0
31.08	-69.177447873393	518.357496091904	25.9781375654942	0.10417068518658	0	-0.0706960240717315	21.5296159324732	72.0681946711246	-0.351996333708879	-0.343218974304488	0	0.0351268896576205	0	5.05183408562852	0	0	0.482398575887339	0
31.09	-69.0046590831215	537.417418238547	26.4151100493004	0.0994418579576895	0	-0.0694504429815755	15.2908123655085	45.4272022413262	-1.33091906440021	-0.368453687912824	0	0.0287824311595249	0	5.21135905085235	0	0	-0.264412745804012	0
31.1	-68.1691910475146	555.973906961068	26.1290945823208	0.0948148143393761	0	-0.0682215907743816	9.85955525421056	25.7086376555784	-1.81203022594209	-0.408557839023909	0	0.0147849348326458	0	5.43734852827439	0	0	-0.663131492465557	0
